<?xml version="1.0" encoding="utf-8"?>
<!-- Generator: Adobe Illustrator 27.5.0, SVG Export Plug-In . SVG Version: 6.00 Build 0)  -->
<svg version="1.1" id="Capa_1" xmlns="http://www.w3.org/2000/svg" xmlns:xlink="http://www.w3.org/1999/xlink" x="0px" y="0px"
	 viewBox="0 0 2122 2122" style="enable-background:new 0 0 2122 2122;" xml:space="preserve">
<path style="fill:#CBE5E8;" d="M1241.655,857.044c-80.949,9.24-159.275,14.407-232.993,15.87
	c27.109,99.017,63.201,196.265,113.547,284.753c81.296,142.885,188.099,264.911,344.584,326.448
	c65.994,25.952,137.76,40.003,210.021,42.908c236.463-288.98,276.272-837.52,281.97-947.725
	C1937.197,691.577,1628.943,812.837,1241.655,857.044z M1727.481,1231.558c-15.261,7.49-31.253,11.673-47.231,13.088
	c1.591,2.537,3.075,5.175,4.424,7.924c21.032,42.85,3.346,94.638-39.505,115.671c-42.85,21.033-94.638,3.346-115.671-39.505
	c-21.033-42.851-3.346-94.639,39.505-115.671c2.749-1.349,5.534-2.528,8.346-3.562c-11.774-10.894-21.867-23.984-29.357-39.245
	c-32.637-66.492-5.192-146.853,61.3-179.49c66.493-32.637,146.853-5.192,179.49,61.301
	C1821.418,1118.561,1793.973,1198.921,1727.481,1231.558z"/>
<path style="fill:#A3D1D4;" d="M1193.117,431.809c-87.402,9.977-170.76,23.888-247.729,40.725
	c1.058,19.599,2.378,39.176,3.901,58.734c85.472-23.388,185.177-42.558,292.361-54.792c330.398-37.713,606.573,4.718,616.852,94.771
	c10.279,90.053-249.229,193.629-579.628,231.342c-102.249,11.671-199.292,15.659-284.881,12.942
	c1.797,7.487,3.616,14.973,5.505,22.452c0.399,1.58,0.793,3.16,1.196,4.739c2.563,10.036,5.197,20.062,7.936,30.069l0.033,0.122
	c73.718-1.463,152.044-6.629,232.993-15.87c387.288-44.207,695.542-165.466,717.13-277.747c1.263-6.568,1.603-13.106,0.863-19.594
	C1946.244,442.277,1603.057,385.017,1193.117,431.809z"/>
<path style="fill:#A95A4F;" d="M950.623,547.72c0.572,6.703,1.179,13.401,1.816,20.097c0.375,3.942,0.748,7.884,1.146,11.824
	c0.754,7.464,1.566,14.921,2.406,22.375c0.325,2.877,0.619,5.757,0.956,8.634c0.25,2.13,0.549,4.255,0.807,6.385
	c86.634-24.652,188.378-44.255,293.517-56.256c76.853-8.772,151.79-13.22,222.735-13.22c145.625,0,236.212,19.096,279.322,35.613
	c-22.387,15.267-62.209,36.499-127.561,59.128c-98.034,33.946-224.645,60.93-356.516,75.983
	c-76.853,8.769-151.79,13.217-222.733,13.217c-25.376,0-49.042-0.591-71.115-1.635c0.953,4.942,1.819,9.895,2.829,14.83
	c2.296,11.218,4.703,22.453,7.19,33.691c0.258,1.167,0.523,2.334,0.782,3.5c0.111,0.483,0.222,0.965,0.33,1.448
	c2.279,10.185,4.623,20.374,7.055,30.558c0.131,0.546,0.27,1.092,0.402,1.637c85.589,2.717,182.632-1.271,284.881-12.942
	c330.399-37.713,589.907-141.288,579.628-231.342c-10.279-90.053-286.453-132.484-616.852-94.771
	c-107.183,12.235-206.889,31.405-292.361,54.792c0.136,1.748,0.251,3.497,0.392,5.245
	C949.981,540.25,950.305,543.985,950.623,547.72z"/>
<path style="fill:#803D34;" d="M960.961,642.235c0.359,2.645,0.75,5.287,1.122,7.931c0.454,3.231,0.948,6.457,1.42,9.686
	c0.63,4.266,1.223,8.535,1.886,12.798l0.084,0.531h0.002c1.566,10.094,3.269,20.172,5.021,30.243
	c1.231,7.002,2.536,13.995,3.865,20.984c0.344,1.819,0.691,3.639,1.042,5.458c22.073,1.044,45.739,1.635,71.115,1.635
	c70.943,0,145.881-4.448,222.733-13.217c131.87-15.053,258.482-42.037,356.516-75.983c65.352-22.629,105.174-43.861,127.561-59.128
	c-43.111-16.517-133.698-35.613-279.322-35.613c-70.945,0-145.883,4.448-222.735,13.22
	c-105.138,12.001-206.883,31.604-293.517,56.256c0.755,6.239,1.542,12.476,2.363,18.707
	C960.404,637.907,960.665,640.073,960.961,642.235z"/>
<path style="fill:#76BFC1;" d="M752.732,1361.406L752.732,1361.406c-57.901,71.759-192.433,204.002-317.243,74.047
	c-162.113-168.797-309.414-546.302,150.372-377.141l0,0c-2.26-5.255-4.495-10.493-6.679-15.69
	c-1.491-3.546-2.964-7.078-4.419-10.594c-5.822-14.067-11.365-27.893-16.636-41.42c-2.635-6.763-5.203-13.452-7.703-20.059
	c-3.589-9.484-7.033-18.791-10.346-27.916h0c-120.442-50.565-395.304-131.735-378.029,190.133
	c21.33,397.411,467.406,664.439,676.83,336.087c-2.986-3.273-5.951-6.567-8.893-9.88
	C802.423,1427.947,776.706,1395.177,752.732,1361.406z"/>
<path style="fill:#B0DCDF;" d="M1122.209,1157.666c-50.346-88.488-86.438-185.735-113.547-284.753l-0.033-0.122l0.032,0.121
	c-283.898,5.635-499.14-43.885-530.08-129.273c1.413,5.715,3.262,13.001,5.581,21.76c0.817,3.087,1.692,6.353,2.625,9.791
	c4.197,15.47,9.569,34.417,16.184,56.185c1.47,4.837,3.001,9.814,4.595,14.923c0.797,2.555,1.609,5.142,2.437,7.762
	c1.656,5.239,3.374,10.607,5.156,16.096c2.673,8.234,5.487,16.741,8.447,25.497c1.973,5.837,4.011,11.785,6.113,17.836
	c2.103,6.051,4.271,12.206,6.505,18.457c1.261,3.53,2.549,7.097,3.852,10.687c3.313,9.125,6.757,18.432,10.346,27.916
	c2.5,6.606,5.068,13.296,7.703,20.059c5.271,13.527,10.814,27.353,16.636,41.42c1.456,3.516,2.929,7.048,4.419,10.594
	c2.184,5.197,4.419,10.435,6.679,15.69c0.824,1.916,1.639,3.825,2.473,5.748c9.364,21.594,19.365,43.634,30.023,65.926
	c3.553,7.431,7.178,14.889,10.877,22.369c5.549,11.218,11.263,22.484,17.146,33.772c9.805,18.813,20.077,37.689,30.829,56.515
	c2.15,3.765,4.32,7.529,6.508,11.289c8.755,15.041,17.819,30.036,27.197,44.927c2.344,3.723,4.708,7.44,7.092,11.148
	c4.767,7.418,9.614,14.806,14.54,22.157c4.926,7.352,9.932,14.666,15.018,21.938c1.709,2.442,3.44,4.872,5.167,7.304
	c23.975,33.771,49.691,66.541,77.252,97.566c2.943,3.314,5.908,6.608,8.893,9.88l0.033,0.037
	c6.743,7.392,13.592,14.678,20.55,21.848c13.915,14.341,28.262,28.218,43.051,41.55c7.394,6.665,14.898,13.195,22.513,19.579
	c15.954,13.373,32.411,26.082,49.351,38.074c16.917,11.977,34.335,23.21,52.255,33.622c4.307,2.502,8.642,4.956,13.008,7.361
	c78.902,43.473,167.384,70.911,266.277,74.573c0.474,0.017,0.938,0.014,1.411,0.03c4.419,0.151,8.817,0.258,13.176,0.287
	c1.748,0.012,3.467-0.033,5.207-0.04c3.071-0.013,6.148-0.01,9.19-0.083c1.968-0.047,3.906-0.152,5.861-0.224
	c2.774-0.101,5.557-0.184,8.306-0.334c2.05-0.112,4.07-0.281,6.106-0.42c2.625-0.181,5.26-0.341,7.863-0.567
	c2.054-0.177,4.08-0.407,6.12-0.613c2.549-0.255,5.105-0.495,7.632-0.795c2.042-0.241,4.059-0.533,6.086-0.802
	c2.491-0.331,4.99-0.648,7.46-1.021c2.019-0.304,4.013-0.656,6.018-0.987c2.443-0.404,4.891-0.798,7.313-1.242
	c1.996-0.367,3.97-0.777,5.952-1.17c2.397-0.477,4.798-0.945,7.175-1.461c1.963-0.426,3.906-0.891,5.855-1.344
	c2.364-0.549,4.73-1.094,7.074-1.682c1.92-0.481,3.821-1,5.727-1.508c2.339-0.623,4.679-1.244,6.998-1.907
	c1.882-0.537,3.746-1.107,5.615-1.669c2.307-0.694,4.613-1.389,6.9-2.122c1.848-0.592,3.68-1.214,5.515-1.83
	c2.274-0.765,4.547-1.534,6.801-2.336c1.805-0.642,3.594-1.311,5.385-1.977c2.26-0.841,4.517-1.688,6.756-2.566
	c1.75-0.687,3.488-1.396,5.226-2.105c2.241-0.914,4.477-1.838,6.696-2.79c1.71-0.733,3.408-1.485,5.105-2.241
	c2.221-0.989,4.435-1.988,6.635-3.013c1.66-0.774,3.311-1.565,4.959-2.359c2.208-1.064,4.408-2.142,6.594-3.245
	c1.606-0.81,3.205-1.633,4.8-2.463c2.197-1.143,4.385-2.303,6.561-3.483c1.555-0.844,3.104-1.699,4.648-2.561
	c2.188-1.223,4.365-2.464,6.531-3.724c1.499-0.872,2.993-1.752,4.481-2.643c2.177-1.302,4.342-2.624,6.496-3.963
	c1.454-0.904,2.904-1.813,4.347-2.734c2.163-1.379,4.313-2.782,6.454-4.2c1.399-0.927,2.797-1.857,4.187-2.8
	c2.16-1.465,4.305-2.954,6.441-4.458c1.341-0.944,2.683-1.888,4.015-2.847c2.158-1.554,4.301-3.133,6.436-4.725
	c1.28-0.954,2.561-1.907,3.833-2.876c2.168-1.65,4.318-3.33,6.46-5.019c1.209-0.954,2.42-1.903,3.621-2.869
	c2.177-1.75,4.334-3.53,6.486-5.32c1.145-0.951,2.292-1.898,3.429-2.862c2.188-1.853,4.355-3.738,6.516-5.633
	c1.072-0.94,2.149-1.872,3.214-2.821c2.218-1.977,4.413-3.987,6.603-6.006c0.979-0.902,1.964-1.797,2.938-2.708
	c2.253-2.109,4.482-4.252,6.705-6.405c0.891-0.865,1.791-1.718,2.679-2.589c2.302-2.26,4.58-4.556,6.85-6.863
	c0.781-0.793,1.569-1.574,2.346-2.373c2.378-2.445,4.73-4.926,7.072-7.421c0.651-0.693,1.31-1.375,1.958-2.072
	c2.451-2.635,4.875-5.308,7.287-7.997c0.528-0.589,1.065-1.167,1.591-1.759c2.604-2.925,5.181-5.888,7.74-8.875l0.94-1.085
	c2.842-3.332,5.658-6.7,8.444-10.105l0.072-0.086l0,0c-72.262-2.906-144.027-16.956-210.021-42.908
	C1310.308,1422.577,1203.505,1300.551,1122.209,1157.666z"/>
<path style="fill:#76BFC1;" d="M1008.661,872.913l-0.032-0.121c-2.739-10.007-5.373-20.034-7.936-30.069
	c-0.403-1.58-0.797-3.159-1.196-4.739c-1.889-7.479-3.709-14.965-5.505-22.452c-0.131-0.546-0.271-1.092-0.402-1.637
	c0.13,0.546,0.247,1.092,0.378,1.637C803.005,809.468,669.119,770,662.021,707.818c-6.944-60.834,109.246-127.834,287.219-176.536
	c0.136,1.745,0.3,3.487,0.44,5.232c-0.14-1.748-0.255-3.497-0.392-5.245c-1.523-19.558-2.843-39.135-3.901-58.734l-0.047,0.011
	c-4.316,0.944-8.612,1.897-12.887,2.86l-0.758,0.171c-17.276,3.896-34.214,7.94-50.789,12.119l-0.723,0.182
	c-4.087,1.033-8.154,2.073-12.197,3.122l-0.255,0.067c-16.39,4.255-32.406,8.644-48.023,13.155l-1.184,0.342
	c-15.445,4.473-30.496,9.064-45.128,13.764l-0.886,0.284c-3.427,1.102-6.827,2.213-10.207,3.328
	c-0.54,0.178-1.078,0.356-1.617,0.534c-14.021,4.642-27.632,9.384-40.813,14.215c-0.667,0.244-1.335,0.487-1.999,0.732
	c-2.962,1.091-5.902,2.187-8.82,3.287c-0.69,0.26-1.374,0.521-2.062,0.782c-9.275,3.516-18.321,7.076-27.13,10.677
	c-0.543,0.222-1.093,0.443-1.634,0.665c-2.586,1.062-5.142,2.129-7.687,3.198c-0.964,0.405-1.927,0.811-2.885,1.217
	c-2.453,1.039-4.891,2.08-7.304,3.126c-0.906,0.393-1.8,0.787-2.7,1.18c-7.766,3.394-15.32,6.82-22.66,10.273
	c-1.029,0.485-2.065,0.968-3.087,1.454c-2.069,0.985-4.115,1.972-6.149,2.961c-1.15,0.559-2.292,1.12-3.43,1.68
	c-1.983,0.977-3.96,1.954-5.909,2.934c-1.06,0.533-2.099,1.07-3.149,1.604c-3.648,1.858-7.231,3.722-10.75,5.595
	c-0.999,0.531-2.014,1.061-3.002,1.593c-1.712,0.922-3.389,1.848-5.07,2.772c-1.237,0.681-2.473,1.362-3.693,2.044
	c-1.597,0.893-3.179,1.788-4.746,2.684c-1.287,0.736-2.556,1.473-3.823,2.21c-1.486,0.865-2.977,1.729-4.436,2.597
	c-1.494,0.888-2.952,1.78-4.417,2.671c-2.175,1.323-4.318,2.648-6.427,3.976c-1.397,0.88-2.798,1.759-4.166,2.641
	c-1.258,0.81-2.49,1.622-3.723,2.434c-1.284,0.845-2.557,1.691-3.814,2.538c-1.196,0.806-2.387,1.612-3.559,2.42
	c-1.329,0.916-2.63,1.833-3.927,2.751c-1.031,0.729-2.076,1.457-3.086,2.187c-2.135,1.543-4.227,3.089-6.272,4.637
	c-0.88,0.666-1.725,1.333-2.588,2.001c-1.309,1.011-2.61,2.022-3.88,3.035c-0.926,0.739-1.834,1.479-2.739,2.219
	c-1.186,0.969-2.352,1.939-3.502,2.91c-0.849,0.716-1.699,1.433-2.528,2.15c-1.341,1.16-2.642,2.321-3.931,3.483
	c-0.572,0.516-1.167,1.032-1.729,1.548c-1.758,1.616-3.456,3.233-5.111,4.851c-0.63,0.617-1.231,1.233-1.846,1.849
	c-1.09,1.092-2.163,2.184-3.205,3.277c-0.641,0.672-1.271,1.344-1.893,2.016c-1.016,1.097-2.002,2.193-2.969,3.289
	c-0.539,0.612-1.089,1.223-1.613,1.834c-1.4,1.632-2.758,3.266-4.049,4.9l-0.621,0.812c-1.134,1.455-2.226,2.91-3.273,4.365
	c-0.426,0.593-0.83,1.185-1.241,1.778c-0.793,1.141-1.563,2.282-2.301,3.423c-0.399,0.616-0.795,1.231-1.178,1.847
	c-0.758,1.219-1.478,2.439-2.174,3.658c-0.281,0.492-0.579,0.985-0.85,1.477c-0.925,1.682-1.795,3.363-2.599,5.043l-0.518,1.149
	c-0.612,1.324-1.192,2.647-1.729,3.969c-0.236,0.582-0.454,1.165-0.676,1.746c-0.444,1.166-0.856,2.332-1.24,3.496
	c-0.188,0.571-0.38,1.143-0.554,1.714c-0.417,1.37-0.786,2.738-1.119,4.106l-0.256,0.991c-0.385,1.684-0.698,3.365-0.954,5.045
	c-0.071,0.464-0.115,0.927-0.176,1.39c-0.163,1.241-0.297,2.48-0.388,3.718c-0.042,0.57-0.073,1.14-0.1,1.71
	c-0.057,1.188-0.075,2.376-0.065,3.563c0.004,0.521-0.003,1.041,0.015,1.561c0.056,1.676,0.159,3.349,0.35,5.019
	c0.191,1.679,0.469,3.342,0.795,4.997c0.103,0.521,0.232,1.037,0.347,1.555c0.257,1.148,0.538,2.289,0.858,3.424
	c0.163,0.576,0.334,1.151,0.513,1.723c0.292,0.935,0.608,1.864,0.944,2.789C509.521,829.028,724.763,878.548,1008.661,872.913z"/>
<path style="fill:#A13D33;" d="M986.205,781.888c-0.186-0.807-0.373-1.615-0.552-2.422l-0.23-1.079
	c-2.487-11.238-4.894-22.473-7.19-33.691c-1.011-4.938-1.933-9.888-2.891-14.833c-104.569-4.955-172.561-20.334-208.153-33.97
	c1.399-0.954,2.866-1.932,4.404-2.931c3.075-1.999,6.43-4.087,10.081-6.255c1.826-1.084,3.725-2.187,5.701-3.31
	c23.708-13.473,58.362-29.66,107.38-46.633c19.854-6.875,40.93-13.447,62.935-19.709c0.443,3.649,0.954,7.291,1.421,10.937
	c-0.735-5.779-1.483-11.556-2.163-17.341c-0.338-2.877-0.632-5.757-0.956-8.634c-0.841-7.454-1.652-14.912-2.406-22.375
	c-0.398-3.94-0.772-7.883-1.146-11.824c-0.637-6.697-1.243-13.395-1.816-20.097c-0.319-3.735-0.643-7.47-0.943-11.207
	c-0.14-1.745-0.304-3.487-0.44-5.232c-177.973,48.702-294.163,115.702-287.219,176.536c7.097,62.182,140.984,101.65,331.947,107.713
	c-0.131-0.545-0.247-1.091-0.378-1.637c-2.432-10.184-4.776-20.373-7.055-30.558C986.427,782.854,986.316,782.371,986.205,781.888z"
	/>
<path style="fill:#6D261E;" d="M975.065,728.227c-0.245-1.272-0.462-2.547-0.703-3.819c-1.329-6.99-2.634-13.982-3.865-20.984
	c-0.088-0.497-0.188-0.992-0.274-1.489l-0.183-1.083c-1.502-8.627-2.928-17.262-4.287-25.905c-0.12-0.766-0.245-1.533-0.364-2.298
	c-0.663-4.263-1.257-8.532-1.886-12.798c-0.421-2.853-0.855-5.703-1.261-8.557c-0.43-3.019-0.868-6.038-1.281-9.06
	c-0.295-2.162-0.556-4.328-0.843-6.491c-0.343-2.583-0.676-5.167-1.006-7.752c-0.467-3.646-0.978-7.288-1.421-10.937
	c-22.005,6.262-43.081,12.833-62.935,19.709c-49.019,16.973-83.672,33.16-107.38,46.633c-1.976,1.123-3.875,2.227-5.701,3.31
	c-3.651,2.168-7.006,4.256-10.081,6.255c-1.538,0.999-3.004,1.977-4.404,2.931c35.592,13.636,103.584,29.015,208.153,33.97
	l0.025,0.001C975.261,729.32,975.17,728.772,975.065,728.227z"/>
<path style="fill:#E4F3F8;" d="M1609.291,990.768c-66.492,32.637-93.937,112.998-61.3,179.49
	c7.491,15.261,17.584,28.352,29.357,39.245c-2.812,1.034-5.598,2.213-8.346,3.562c-42.85,21.032-60.537,72.82-39.505,115.671
	c21.033,42.85,72.821,60.538,115.671,39.505c42.851-21.033,60.537-72.821,39.505-115.671c-1.349-2.749-2.833-5.386-4.424-7.924
	c15.978-1.415,31.97-5.598,47.231-13.088c66.492-32.637,93.937-112.997,61.301-179.489
	C1756.144,985.576,1675.784,958.131,1609.291,990.768z"/>
</svg>
